<svg width="166" height="130" viewBox="0 0 166 130" fill="none" xmlns="http://www.w3.org/2000/svg">
<g clip-path="url(#clip0_9_147)">
<path d="M120.531 2L84.3487 21.8107C80.8838 23.7079 80.8838 28.6848 84.3487 30.582L118.129 49.0778C119.625 49.897 121.436 49.8969 122.932 49.0776L149.286 34.6454C152.618 32.8206 156.688 35.2318 156.688 39.0308V54.4407C156.688 56.6594 158.486 58.4581 160.705 58.4581V58.4581C162.924 58.4581 164.722 56.6595 164.722 54.4407V26.1963M99.8108 47.1079C96.4787 45.2827 92.4086 47.6938 92.4086 51.4931V56.2219C92.4086 58.0484 93.4046 59.7296 95.0065 60.6071L118.128 73.2731C119.625 74.0929 121.436 74.0929 122.933 73.2731L146.055 60.6071C147.657 59.7296 148.653 58.0484 148.653 56.2219V51.4931C148.653 47.6938 144.583 45.2827 141.251 47.108L122.933 57.1422C121.436 57.962 119.625 57.962 118.128 57.1422L99.8108 47.1079Z" fill="white"/>
<path d="M161.228 91.854C162.088 89.9657 160.134 88.0324 156.863 87.5359C153.592 87.0393 150.243 88.1675 149.383 90.0558L161.228 91.854ZM131.403 108.096C104.388 123.692 60.589 123.692 33.5745 108.096L24.9141 113.096C56.7116 131.453 108.266 131.453 140.063 113.096L131.403 108.096ZM33.5745 108.096C6.56001 92.501 6.56001 67.2157 33.5745 51.6203L24.9141 46.6206C-6.88346 64.9773 -6.88346 94.7394 24.9141 113.096L33.5745 108.096ZM33.5745 51.6203C42.2483 46.6129 52.6364 43.2182 63.6419 41.4263L60.3173 34.6212C47.3472 36.7329 35.1075 40.7359 24.9141 46.6206L33.5745 51.6203ZM149.383 90.0558C146.374 96.6624 140.386 102.91 131.403 108.096L140.063 113.096C150.621 107.001 157.682 99.6389 161.228 91.854L149.383 90.0558Z" fill="white"/>
<path d="M161.228 91.854C162.088 89.9657 160.134 88.0324 156.863 87.5359C153.592 87.0393 150.243 88.1675 149.383 90.0558L161.228 91.854ZM131.403 108.096C104.388 123.692 60.589 123.692 33.5745 108.096L24.9141 113.096C56.7116 131.453 108.266 131.453 140.063 113.096L131.403 108.096ZM33.5745 108.096C6.56001 92.501 6.56001 67.2157 33.5745 51.6203L24.9141 46.6206C-6.88346 64.9773 -6.88346 94.7394 24.9141 113.096L33.5745 108.096ZM33.5745 51.6203C42.2483 46.6129 52.6364 43.2182 63.6419 41.4263L60.3173 34.6212C47.3472 36.7329 35.1075 40.7359 24.9141 46.6206L33.5745 51.6203ZM149.383 90.0558C146.374 96.6624 140.386 102.91 131.403 108.096L140.063 113.096C150.621 107.001 157.682 99.6389 161.228 91.854L149.383 90.0558Z" fill="white"/>
<path d="M131.661 87.4548C132.281 86.1358 130.932 84.7763 128.647 84.4182C126.362 84.0602 124.007 84.8392 123.387 86.1582L131.661 87.4548ZM112.457 97.0242C95.9062 106.579 69.0714 106.579 52.5202 97.0242L46.4579 100.524C66.3572 112.012 98.6204 112.012 118.52 100.524L112.457 97.0242ZM52.5202 97.0242C35.969 87.4692 35.969 71.9775 52.5202 62.4225L46.4579 58.9227C26.5585 70.4106 26.5585 89.0361 46.4579 100.524L52.5202 97.0242ZM52.5202 62.4225C57.94 59.2936 64.4513 57.1926 71.3422 56.1128L69.0963 51.3362C60.8005 52.6362 52.9629 55.1673 46.4579 58.9227L52.5202 62.4225ZM123.387 86.1582C121.516 90.1364 117.877 93.8953 112.457 97.0242L118.52 100.524C125.025 96.7686 129.409 92.244 131.661 87.4548L123.387 86.1582Z" fill="white"/>
<path d="M131.661 87.4548C132.281 86.1358 130.932 84.7763 128.647 84.4182C126.362 84.0602 124.007 84.8392 123.387 86.1582L131.661 87.4548ZM112.457 97.0242C95.9062 106.579 69.0714 106.579 52.5202 97.0242L46.4579 100.524C66.3572 112.012 98.6204 112.012 118.52 100.524L112.457 97.0242ZM52.5202 97.0242C35.969 87.4692 35.969 71.9775 52.5202 62.4225L46.4579 58.9227C26.5585 70.4106 26.5585 89.0361 46.4579 100.524L52.5202 97.0242ZM52.5202 62.4225C57.94 59.2936 64.4513 57.1926 71.3422 56.1128L69.0963 51.3362C60.8005 52.6362 52.9629 55.1673 46.4579 58.9227L52.5202 62.4225ZM123.387 86.1582C121.516 90.1364 117.877 93.8953 112.457 97.0242L118.52 100.524C125.025 96.7686 129.409 92.244 131.661 87.4548L123.387 86.1582Z" fill="white"/>
<ellipse cx="4.86434" cy="4.86434" rx="4.86434" ry="4.86434" transform="matrix(0.866044 -0.499967 0.866044 0.499967 74.7651 80.1286)" fill="white" stroke="white" stroke-width="10"/>
<ellipse cx="4.86434" cy="4.86434" rx="4.86434" ry="4.86434" transform="matrix(0.866044 -0.499967 0.866044 0.499967 31.8096 89.2598)" fill="white" stroke="white" stroke-width="10"/>
<ellipse cx="4.86434" cy="4.86434" rx="4.86434" ry="4.86434" transform="matrix(0.866044 -0.499967 0.866044 0.499967 103.227 120.948)" fill="white" stroke="white" stroke-width="10"/>
<path d="M83.0429 79.7705L60.1875 33.3158" stroke="white" stroke-width="10"/>
</g>
<defs>
<clipPath id="clip0_9_147">
<rect width="166" height="130" fill="white"/>
</clipPath>
</defs>
</svg>
