<svg width="500" height="500" viewBox="0 0 500 500" fill="none" xmlns="http://www.w3.org/2000/svg">
<path d="M64.3221 59.6215C57.704 64.2647 56.1031 73.3939 60.7464 80.012C65.3897 86.6301 74.5188 88.2309 81.1369 83.5877L64.3221 59.6215ZM201.586 45.6383C317.46 45.6383 411.362 139.443 411.362 255.116H440.638C440.638 123.237 333.593 16.3617 201.586 16.3617V45.6383ZM411.362 255.116C411.362 345.118 354.511 421.912 274.643 451.545L284.827 478.993C375.78 445.247 440.638 357.772 440.638 255.116H411.362ZM81.1369 83.5877C115.22 59.675 156.739 45.6383 201.586 45.6383V16.3617C150.531 16.3617 103.173 32.3638 64.3221 59.6215L81.1369 83.5877Z" fill="#B15CF4"/>
<path d="M279.617 421.842C368.423 391.102 428.44 233.984 340.122 126.149" stroke="url(#paint0_linear_6_2)" stroke-width="58.5531"/>
<path d="M300.412 150.546C328.997 176.437 346.953 213.849 346.953 255.454C346.953 333.604 283.6 396.957 205.45 396.957C187.381 396.957 173.03 393.372 157.144 387.198" stroke="#B15CF4" stroke-width="29.2766" stroke-linecap="round"/>
<path d="M157.144 387.198C173.03 393.372 187.381 396.957 205.45 396.957C244.105 396.957 279.14 381.458 304.679 356.334" stroke="black" stroke-width="29.2766" stroke-linecap="round"/>
<path d="M221.934 301.156L282.585 464.254" stroke="black" stroke-width="29.2766" stroke-linecap="round"/>
<path d="M186.553 304.675L128.242 468.424" stroke="black" stroke-width="29.2766" stroke-linecap="round"/>
<circle cx="205.474" cy="255.478" r="42.1107" transform="rotate(135 205.474 255.478)" stroke="black" stroke-width="29.2766"/>
<path d="M205.45 210.563L205.45 150.058" stroke="black" stroke-width="29.2766" stroke-linecap="round"/>
<defs>
<linearGradient id="paint0_linear_6_2" x1="322.068" y1="162.257" x2="322.068" y2="411.107" gradientUnits="userSpaceOnUse">
<stop stop-color="#B15CF4" stop-opacity="0"/>
<stop offset="1" stop-color="#B15CF4"/>
</linearGradient>
</defs>
</svg>
