<svg width="500" height="500" viewBox="0 0 500 500" fill="none" xmlns="http://www.w3.org/2000/svg">
<path d="M266.891 296.832L329.041 463.96" stroke="#B15CF4" stroke-width="30" stroke-linecap="round"/>
<path d="M230.637 300.438L170.885 468.233" stroke="#B15CF4" stroke-width="30" stroke-linecap="round"/>
<circle cx="250.025" cy="250.025" r="43.1513" transform="rotate(135 250.025 250.025)" stroke="#B15CF4" stroke-width="30"/>
<path d="M347.309 142.5C376.601 169.031 395 207.367 395 250C395 330.081 330.081 395 250 395C231.484 395 216.779 391.326 200.5 385" stroke="#B15CF4" stroke-width="30" stroke-linecap="round"/>
<path d="M326 420.5C417 389 478.5 228 388 117.5" stroke="url(#paint0_linear_6_2)" stroke-width="60"/>
<path d="M250 204L250 142" stroke="#B15CF4" stroke-width="30" stroke-linecap="round"/>
<path d="M105.385 49.3287C98.6032 54.0867 96.9628 63.4415 101.721 70.2231C106.479 77.0047 115.834 78.6452 122.615 73.8871L105.385 49.3287ZM246.041 35C364.778 35 461 131.123 461 249.654H491C491 114.517 381.309 5 246.041 5V35ZM461 249.654C461 341.88 402.744 420.571 320.903 450.937L331.339 479.063C424.539 444.483 491 354.847 491 249.654H461ZM122.615 73.8871C157.54 49.3836 200.085 35 246.041 35V5C193.724 5 145.195 21.3975 105.385 49.3287L122.615 73.8871Z" fill="#B15CF4"/>
<defs>
<linearGradient id="paint0_linear_6_2" x1="369.5" y1="154.5" x2="369.5" y2="409.5" gradientUnits="userSpaceOnUse">
<stop stop-color="#B15CF4" stop-opacity="0"/>
<stop offset="1" stop-color="#B15CF4"/>
</linearGradient>
</defs>
</svg>
