<svg width="385" height="277" viewBox="0 0 385 277" fill="none" xmlns="http://www.w3.org/2000/svg">
<g clip-path="url(#clip0_9_169)">
<path d="M272.827 3L186.396 50.1636C182.923 52.0589 182.923 57.0464 186.396 58.9417L270.432 104.798C271.925 105.613 273.729 105.613 275.222 104.798L342.729 67.9543C346.061 66.1358 350.124 68.5473 350.124 72.3432V118.29C350.124 121.051 352.363 123.29 355.124 123.29H362.301C365.063 123.29 367.301 121.051 367.301 118.29V54.5527M220.103 94.5054C216.771 92.6864 212.707 95.0979 212.707 98.894V121.869C212.707 123.698 213.706 125.381 215.311 126.258L270.431 156.35C271.924 157.165 273.73 157.165 275.223 156.35L330.343 126.258C331.948 125.381 332.947 123.698 332.947 121.869V98.894C332.947 95.0979 328.883 92.6864 325.551 94.5054L275.223 121.982C273.73 122.797 271.924 122.797 270.431 121.982L220.103 94.5054Z" fill="#B15CF4"/>
<path d="M357.918 193.116C360.068 188.396 355.182 183.562 347.005 182.321C338.828 181.08 330.456 183.9 328.305 188.621L357.918 193.116ZM290.903 226.147C234.708 258.589 143.597 258.589 87.4017 226.147L65.7506 238.647C133.904 277.991 244.401 277.991 312.554 238.647L290.903 226.147ZM87.4017 226.147C31.2064 193.706 31.2064 141.108 87.4017 108.666L65.7506 96.1669C-2.40227 135.512 -2.40227 199.302 65.7506 238.647L87.4017 226.147ZM87.4017 108.666C105.448 98.2481 127.055 91.1877 149.945 87.4608L141.634 70.4479C113.832 74.9745 87.596 83.5556 65.7506 96.1669L87.4017 108.666ZM328.305 188.621C322.046 202.362 309.593 215.358 290.903 226.147L312.554 238.647C335.181 225.584 350.317 209.803 357.918 193.116L328.305 188.621Z" fill="#B15CF4"/>
<path d="M357.918 193.116C360.068 188.396 355.182 183.562 347.005 182.321C338.828 181.08 330.456 183.9 328.305 188.621L357.918 193.116ZM290.903 226.147C234.708 258.589 143.597 258.589 87.4017 226.147L65.7506 238.647C133.904 277.991 244.401 277.991 312.554 238.647L290.903 226.147ZM87.4017 226.147C31.2064 193.706 31.2064 141.108 87.4017 108.666L65.7506 96.1669C-2.40227 135.512 -2.40227 199.302 65.7506 238.647L87.4017 226.147ZM87.4017 108.666C105.448 98.2481 127.055 91.1877 149.945 87.4608L141.634 70.4479C113.832 74.9745 87.596 83.5556 65.7506 96.1669L87.4017 108.666ZM328.305 188.621C322.046 202.362 309.593 215.358 290.903 226.147L312.554 238.647C335.181 225.584 350.317 209.803 357.918 193.116L328.305 188.621Z" fill="#B15CF4"/>
<path d="M296.192 183.95C297.964 180.181 294.108 176.297 287.58 175.274C281.052 174.251 274.324 176.476 272.552 180.245L296.192 183.95ZM250.264 202.401C216.513 221.886 161.792 221.886 128.04 202.401L110.719 212.4C154.037 237.408 224.268 237.407 267.585 212.4L250.264 202.401ZM128.04 202.401C94.2891 182.916 94.2891 151.326 128.04 131.841L110.719 121.842C67.4022 146.849 67.4022 187.393 110.719 212.4L128.04 202.401ZM128.04 131.841C139.097 125.458 152.371 121.176 166.419 118.975L160.002 105.327C141.94 108.158 124.876 113.669 110.719 121.842L128.04 131.841ZM272.552 180.245C268.739 188.355 261.321 196.018 250.264 202.401L267.585 212.4C281.742 204.228 291.289 194.377 296.192 183.95L272.552 180.245Z" fill="#B15CF4"/>
<path d="M296.192 183.95C297.964 180.181 294.108 176.297 287.58 175.274C281.052 174.251 274.324 176.476 272.552 180.245L296.192 183.95ZM250.264 202.401C216.513 221.886 161.792 221.886 128.04 202.401L110.719 212.4C154.037 237.408 224.268 237.407 267.585 212.4L250.264 202.401ZM128.04 202.401C94.2891 182.916 94.2891 151.326 128.04 131.841L110.719 121.842C67.4022 146.849 67.4022 187.393 110.719 212.4L128.04 202.401ZM128.04 131.841C139.097 125.458 152.371 121.176 166.419 118.975L160.002 105.327C141.94 108.158 124.876 113.669 110.719 121.842L128.04 131.841ZM272.552 180.245C268.739 188.355 261.321 196.018 250.264 202.401L267.585 212.4C281.742 204.228 291.289 194.377 296.192 183.95L272.552 180.245Z" fill="#B15CF4"/>
<ellipse cx="10.2848" cy="10.2848" rx="10.2848" ry="10.2848" transform="matrix(0.866044 -0.499967 0.866044 0.499967 172.823 167.978)" fill="#B15CF4" stroke="#B15CF4" stroke-width="30"/>
<ellipse cx="10.2848" cy="10.2848" rx="10.2848" ry="10.2848" transform="matrix(0.866044 -0.499967 0.866044 0.499967 82 187.284)" fill="#B15CF4" stroke="#B15CF4" stroke-width="30"/>
<ellipse cx="10.2848" cy="10.2848" rx="10.2848" ry="10.2848" transform="matrix(0.866044 -0.499967 0.866044 0.499967 233 254.284)" fill="#B15CF4" stroke="#B15CF4" stroke-width="30"/>
<path d="M190.324 167.221L142 69" stroke="#B15CF4" stroke-width="25"/>
</g>
<defs>
<clipPath id="clip0_9_169">
<rect width="385" height="277" fill="white"/>
</clipPath>
</defs>
</svg>
